# xmcd CD database file generated by Grip 3.3.1
# 
# Track frame offsets:
#       150
#       10742
#       22432
#       34117
#       62912
#       79145
#       94315
#       108802
#       119027
#       129572
#       139937
#       149705
#       170002
#       180337
#       194342
#       206827
#       215580
#       224800
#       236615
#       250892
#       260047
# 
# Disc length: 3633 seconds
# 
# Revision: 5
# Processed by: cddbd v1.5.2PL0 Copyright (c) Steve Scherf et al.
# Submitted via: Grip 3.3.1
# 
DISCID=560e2f15
DTITLE=Paul Winter - Canyon Lullaby
DYEAR=1997
DGENRE=New Age
TTITLE0=Canyon Lullaby
TTITLE1=First Light
TTITLE2=Honoring Song
TTITLE3=Canyon Chaconne
TTITLE4=Dream Of The Basketmaker
TTITLE5=Air for Keetu
TTITLE6=Cornmeal Medicine Wheel
TTITLE7=Redbud Siesta
TTITLE8=Lizard Lounge
TTITLE9=Hummingbird's Ballad
TTITLE10=Afternoon Sun
TTITLE11=Waltz of the Ravens
TTITLE12=Lullaby at Pumpkin Springs
TTITLE13=Dreamcatcher
TTITLE14=Mars on the Rim
TTITLE15=Midnight Blue
TTITLE16=Moon Shadows
TTITLE17=Music Temple
TTITLE18=Rain Blessing
TTITLE19=Sweet Dreams, Little One
TTITLE20=Canyon Chaconne (Reprise)
EXTD=YEAR: 1997
EXTT0=
EXTT1=
EXTT2=
EXTT3=
EXTT4=
EXTT5=
EXTT6=
EXTT7=
EXTT8=
EXTT9=
EXTT10=
EXTT11=
EXTT12=
EXTT13=
EXTT14=
EXTT15=
EXTT16=
EXTT17=
EXTT18=
EXTT19=
EXTT20=
PLAYORDER=
